<svg width="155" height="57" viewBox="0 0 155 57" fill="none" xmlns="http://www.w3.org/2000/svg">
<g filter="url(#filter0_d_1_3)">
<path d="M36.8352 18.3125H29.3693C29.233 17.3466 28.9545 16.4886 28.5341 15.7386C28.1136 14.9773 27.5739 14.3295 26.9148 13.7955C26.2557 13.2614 25.4943 12.8523 24.6307 12.5682C23.7784 12.2841 22.8523 12.142 21.8523 12.142C20.0455 12.142 18.4716 12.5909 17.1307 13.4886C15.7898 14.375 14.75 15.6705 14.0114 17.375C13.2727 19.0682 12.9034 21.125 12.9034 23.5455C12.9034 26.0341 13.2727 28.125 14.0114 29.8182C14.7614 31.5114 15.8068 32.7898 17.1477 33.6534C18.4886 34.517 20.0398 34.9489 21.8011 34.9489C22.7898 34.9489 23.7045 34.8182 24.5455 34.5568C25.3977 34.2955 26.1534 33.9148 26.8125 33.4148C27.4716 32.9034 28.017 32.2841 28.4489 31.5568C28.892 30.8295 29.1989 30 29.3693 29.0682L36.8352 29.1023C36.642 30.7045 36.1591 32.25 35.3864 33.7386C34.625 35.2159 33.5966 36.5398 32.3011 37.7102C31.017 38.8693 29.483 39.7898 27.6989 40.4716C25.9261 41.142 23.9205 41.4773 21.6818 41.4773C18.5682 41.4773 15.7841 40.7727 13.3295 39.3636C10.8864 37.9545 8.95455 35.9148 7.53409 33.2443C6.125 30.5739 5.42045 27.3409 5.42045 23.5455C5.42045 19.7386 6.13636 16.5 7.56818 13.8295C9 11.1591 10.9432 9.125 13.3977 7.72727C15.8523 6.31818 18.6136 5.61364 21.6818 5.61364C23.7045 5.61364 25.5795 5.89773 27.3068 6.46591C29.0455 7.03409 30.5852 7.86364 31.9261 8.95454C33.267 10.0341 34.358 11.358 35.1989 12.9261C36.0511 14.4943 36.5966 16.2898 36.8352 18.3125ZM49.2528 25.8636V41H41.9915V6.09091H49.0483V19.4375H49.3551C49.946 17.892 50.9006 16.6818 52.2188 15.8068C53.5369 14.9205 55.1903 14.4773 57.179 14.4773C58.9972 14.4773 60.5824 14.875 61.9347 15.6705C63.2983 16.4545 64.3551 17.5852 65.1051 19.0625C65.8665 20.5284 66.2415 22.2841 66.2301 24.3295V41H58.9688V25.625C58.9801 24.0114 58.571 22.7557 57.7415 21.858C56.9233 20.9602 55.7756 20.5114 54.2983 20.5114C53.3097 20.5114 52.4347 20.7216 51.6733 21.142C50.9233 21.5625 50.3324 22.1761 49.9006 22.983C49.4801 23.7784 49.2642 24.7386 49.2528 25.8636ZM71.9446 41V14.8182H79.206V41H71.9446ZM75.5923 11.4432C74.5128 11.4432 73.5866 11.0852 72.8139 10.3693C72.0526 9.64204 71.6719 8.77273 71.6719 7.76136C71.6719 6.76136 72.0526 5.90341 72.8139 5.1875C73.5866 4.46023 74.5128 4.09659 75.5923 4.09659C76.6719 4.09659 77.5923 4.46023 78.3537 5.1875C79.1264 5.90341 79.5128 6.76136 79.5128 7.76136C79.5128 8.77273 79.1264 9.64204 78.3537 10.3693C77.5923 11.0852 76.6719 11.4432 75.5923 11.4432ZM85.0227 41V14.8182H92.0625V19.3864H92.3352C92.8125 17.7614 93.6136 16.5341 94.7386 15.7045C95.8636 14.8636 97.1591 14.4432 98.625 14.4432C98.9886 14.4432 99.3807 14.4659 99.8011 14.5114C100.222 14.5568 100.591 14.6193 100.909 14.6989V21.142C100.568 21.0398 100.097 20.9489 99.4943 20.8693C98.892 20.7898 98.3409 20.75 97.8409 20.75C96.7727 20.75 95.8182 20.983 94.9773 21.4489C94.1477 21.9034 93.4886 22.5398 93 23.358C92.5227 24.1761 92.2841 25.1193 92.2841 26.1875V41H85.0227ZM104.663 50.8182V14.8182H111.822V19.2159H112.146C112.464 18.5114 112.925 17.7955 113.527 17.0682C114.141 16.3295 114.936 15.7159 115.913 15.2273C116.902 14.7273 118.129 14.4773 119.595 14.4773C121.504 14.4773 123.266 14.9773 124.879 15.9773C126.493 16.9659 127.783 18.4602 128.749 20.4602C129.714 22.4489 130.197 24.9432 130.197 27.9432C130.197 30.8636 129.726 33.3295 128.783 35.3409C127.851 37.3409 126.578 38.858 124.964 39.892C123.362 40.9148 121.567 41.4261 119.578 41.4261C118.169 41.4261 116.97 41.1932 115.982 40.7273C115.004 40.2614 114.203 39.6761 113.578 38.9716C112.953 38.2557 112.476 37.5341 112.146 36.8068H111.925V50.8182H104.663ZM111.771 27.9091C111.771 29.4659 111.987 30.8239 112.419 31.983C112.851 33.142 113.476 34.0455 114.294 34.6932C115.112 35.3295 116.107 35.6477 117.277 35.6477C118.459 35.6477 119.459 35.3239 120.277 34.6761C121.095 34.017 121.714 33.108 122.135 31.9489C122.567 30.7784 122.783 29.4318 122.783 27.9091C122.783 26.3977 122.572 25.0682 122.152 23.9205C121.732 22.7727 121.112 21.875 120.294 21.2273C119.476 20.5795 118.47 20.2557 117.277 20.2557C116.095 20.2557 115.095 20.5682 114.277 21.1932C113.47 21.8182 112.851 22.7045 112.419 23.8523C111.987 25 111.771 26.3523 111.771 27.9091ZM148.964 14.8182V20.2727H133.197V14.8182H148.964ZM136.777 8.54545H144.038V32.9545C144.038 33.625 144.141 34.1477 144.345 34.5227C144.55 34.8864 144.834 35.142 145.197 35.2898C145.572 35.4375 146.004 35.5114 146.493 35.5114C146.834 35.5114 147.175 35.483 147.516 35.4261C147.857 35.358 148.118 35.3068 148.3 35.2727L149.442 40.6761C149.078 40.7898 148.567 40.9205 147.908 41.0682C147.249 41.2273 146.447 41.3239 145.504 41.358C143.754 41.4261 142.22 41.1932 140.902 40.6591C139.595 40.125 138.578 39.2955 137.851 38.1705C137.124 37.0455 136.766 35.625 136.777 33.9091V8.54545Z" fill="#2F48CA"/>
<path d="M36.8352 18.3125H29.3693C29.233 17.3466 28.9545 16.4886 28.5341 15.7386C28.1136 14.9773 27.5739 14.3295 26.9148 13.7955C26.2557 13.2614 25.4943 12.8523 24.6307 12.5682C23.7784 12.2841 22.8523 12.142 21.8523 12.142C20.0455 12.142 18.4716 12.5909 17.1307 13.4886C15.7898 14.375 14.75 15.6705 14.0114 17.375C13.2727 19.0682 12.9034 21.125 12.9034 23.5455C12.9034 26.0341 13.2727 28.125 14.0114 29.8182C14.7614 31.5114 15.8068 32.7898 17.1477 33.6534C18.4886 34.517 20.0398 34.9489 21.8011 34.9489C22.7898 34.9489 23.7045 34.8182 24.5455 34.5568C25.3977 34.2955 26.1534 33.9148 26.8125 33.4148C27.4716 32.9034 28.017 32.2841 28.4489 31.5568C28.892 30.8295 29.1989 30 29.3693 29.0682L36.8352 29.1023C36.642 30.7045 36.1591 32.25 35.3864 33.7386C34.625 35.2159 33.5966 36.5398 32.3011 37.7102C31.017 38.8693 29.483 39.7898 27.6989 40.4716C25.9261 41.142 23.9205 41.4773 21.6818 41.4773C18.5682 41.4773 15.7841 40.7727 13.3295 39.3636C10.8864 37.9545 8.95455 35.9148 7.53409 33.2443C6.125 30.5739 5.42045 27.3409 5.42045 23.5455C5.42045 19.7386 6.13636 16.5 7.56818 13.8295C9 11.1591 10.9432 9.125 13.3977 7.72727C15.8523 6.31818 18.6136 5.61364 21.6818 5.61364C23.7045 5.61364 25.5795 5.89773 27.3068 6.46591C29.0455 7.03409 30.5852 7.86364 31.9261 8.95454C33.267 10.0341 34.358 11.358 35.1989 12.9261C36.0511 14.4943 36.5966 16.2898 36.8352 18.3125ZM49.2528 25.8636V41H41.9915V6.09091H49.0483V19.4375H49.3551C49.946 17.892 50.9006 16.6818 52.2188 15.8068C53.5369 14.9205 55.1903 14.4773 57.179 14.4773C58.9972 14.4773 60.5824 14.875 61.9347 15.6705C63.2983 16.4545 64.3551 17.5852 65.1051 19.0625C65.8665 20.5284 66.2415 22.2841 66.2301 24.3295V41H58.9688V25.625C58.9801 24.0114 58.571 22.7557 57.7415 21.858C56.9233 20.9602 55.7756 20.5114 54.2983 20.5114C53.3097 20.5114 52.4347 20.7216 51.6733 21.142C50.9233 21.5625 50.3324 22.1761 49.9006 22.983C49.4801 23.7784 49.2642 24.7386 49.2528 25.8636ZM71.9446 41V14.8182H79.206V41H71.9446ZM75.5923 11.4432C74.5128 11.4432 73.5866 11.0852 72.8139 10.3693C72.0526 9.64204 71.6719 8.77273 71.6719 7.76136C71.6719 6.76136 72.0526 5.90341 72.8139 5.1875C73.5866 4.46023 74.5128 4.09659 75.5923 4.09659C76.6719 4.09659 77.5923 4.46023 78.3537 5.1875C79.1264 5.90341 79.5128 6.76136 79.5128 7.76136C79.5128 8.77273 79.1264 9.64204 78.3537 10.3693C77.5923 11.0852 76.6719 11.4432 75.5923 11.4432ZM85.0227 41V14.8182H92.0625V19.3864H92.3352C92.8125 17.7614 93.6136 16.5341 94.7386 15.7045C95.8636 14.8636 97.1591 14.4432 98.625 14.4432C98.9886 14.4432 99.3807 14.4659 99.8011 14.5114C100.222 14.5568 100.591 14.6193 100.909 14.6989V21.142C100.568 21.0398 100.097 20.9489 99.4943 20.8693C98.892 20.7898 98.3409 20.75 97.8409 20.75C96.7727 20.75 95.8182 20.983 94.9773 21.4489C94.1477 21.9034 93.4886 22.5398 93 23.358C92.5227 24.1761 92.2841 25.1193 92.2841 26.1875V41H85.0227ZM104.663 50.8182V14.8182H111.822V19.2159H112.146C112.464 18.5114 112.925 17.7955 113.527 17.0682C114.141 16.3295 114.936 15.7159 115.913 15.2273C116.902 14.7273 118.129 14.4773 119.595 14.4773C121.504 14.4773 123.266 14.9773 124.879 15.9773C126.493 16.9659 127.783 18.4602 128.749 20.4602C129.714 22.4489 130.197 24.9432 130.197 27.9432C130.197 30.8636 129.726 33.3295 128.783 35.3409C127.851 37.3409 126.578 38.858 124.964 39.892C123.362 40.9148 121.567 41.4261 119.578 41.4261C118.169 41.4261 116.97 41.1932 115.982 40.7273C115.004 40.2614 114.203 39.6761 113.578 38.9716C112.953 38.2557 112.476 37.5341 112.146 36.8068H111.925V50.8182H104.663ZM111.771 27.9091C111.771 29.4659 111.987 30.8239 112.419 31.983C112.851 33.142 113.476 34.0455 114.294 34.6932C115.112 35.3295 116.107 35.6477 117.277 35.6477C118.459 35.6477 119.459 35.3239 120.277 34.6761C121.095 34.017 121.714 33.108 122.135 31.9489C122.567 30.7784 122.783 29.4318 122.783 27.9091C122.783 26.3977 122.572 25.0682 122.152 23.9205C121.732 22.7727 121.112 21.875 120.294 21.2273C119.476 20.5795 118.47 20.2557 117.277 20.2557C116.095 20.2557 115.095 20.5682 114.277 21.1932C113.47 21.8182 112.851 22.7045 112.419 23.8523C111.987 25 111.771 26.3523 111.771 27.9091ZM148.964 14.8182V20.2727H133.197V14.8182H148.964ZM136.777 8.54545H144.038V32.9545C144.038 33.625 144.141 34.1477 144.345 34.5227C144.55 34.8864 144.834 35.142 145.197 35.2898C145.572 35.4375 146.004 35.5114 146.493 35.5114C146.834 35.5114 147.175 35.483 147.516 35.4261C147.857 35.358 148.118 35.3068 148.3 35.2727L149.442 40.6761C149.078 40.7898 148.567 40.9205 147.908 41.0682C147.249 41.2273 146.447 41.3239 145.504 41.358C143.754 41.4261 142.22 41.1932 140.902 40.6591C139.595 40.125 138.578 39.2955 137.851 38.1705C137.124 37.0455 136.766 35.625 136.777 33.9091V8.54545Z" fill="url(#paint0_linear_1_3)"/>
</g>
<defs>
<filter id="filter0_d_1_3" x="0.420456" y="0.0965881" width="154.021" height="56.7216" filterUnits="userSpaceOnUse" color-interpolation-filters="sRGB">
<feFlood flood-opacity="0" result="BackgroundImageFix"/>
<feColorMatrix in="SourceAlpha" type="matrix" values="0 0 0 0 0 0 0 0 0 0 0 0 0 0 0 0 0 0 127 0" result="hardAlpha"/>
<feOffset dy="1"/>
<feGaussianBlur stdDeviation="2.5"/>
<feComposite in2="hardAlpha" operator="out"/>
<feColorMatrix type="matrix" values="0 0 0 0 1 0 0 0 0 1 0 0 0 0 1 0 0 0 0.25 0"/>
<feBlend mode="normal" in2="BackgroundImageFix" result="effect1_dropShadow_1_3"/>
<feBlend mode="normal" in="SourceGraphic" in2="effect1_dropShadow_1_3" result="shape"/>
</filter>
<linearGradient id="paint0_linear_1_3" x1="8" y1="-22" x2="162" y2="60" gradientUnits="userSpaceOnUse">
<stop stop-color="#C013CF"/>
<stop offset="0.908607" stop-color="#E600FA" stop-opacity="0"/>
</linearGradient>
</defs>
</svg>
