<svg width="55" height="55" viewBox="0 0 55 55" fill="none" xmlns="http://www.w3.org/2000/svg">
<g id="icon/notification/sms_24px">
<g id="icon/notification/sms_24px_2" filter="url(#filter0_d_1_5)">
<path fill-rule="evenodd" clip-rule="evenodd" d="M45.1667 4.41667H9.83333C7.40416 4.41667 5.41666 6.40417 5.41666 8.83334V48.5833L14.25 39.75H45.1667C47.5958 39.75 49.5833 37.7625 49.5833 35.3333V8.83334C49.5833 6.40417 47.5958 4.41667 45.1667 4.41667ZM45.1667 35.3333H12.4171L9.83333 37.9171V8.83334H45.1667V35.3333ZM20.875 19.875H16.4583V24.2917H20.875V19.875ZM34.125 19.875H38.5417V24.2917H34.125V19.875ZM29.7083 19.875H25.2917V24.2917H29.7083V19.875Z" fill="#2F48CA"/>
<path fill-rule="evenodd" clip-rule="evenodd" d="M45.1667 4.41667H9.83333C7.40416 4.41667 5.41666 6.40417 5.41666 8.83334V48.5833L14.25 39.75H45.1667C47.5958 39.75 49.5833 37.7625 49.5833 35.3333V8.83334C49.5833 6.40417 47.5958 4.41667 45.1667 4.41667ZM45.1667 35.3333H12.4171L9.83333 37.9171V8.83334H45.1667V35.3333ZM20.875 19.875H16.4583V24.2917H20.875V19.875ZM34.125 19.875H38.5417V24.2917H34.125V19.875ZM29.7083 19.875H25.2917V24.2917H29.7083V19.875Z" fill="url(#paint0_linear_1_5)"/>
</g>
</g>
<defs>
<filter id="filter0_d_1_5" x="0.416664" y="0.416672" width="54.1667" height="54.1667" filterUnits="userSpaceOnUse" color-interpolation-filters="sRGB">
<feFlood flood-opacity="0" result="BackgroundImageFix"/>
<feColorMatrix in="SourceAlpha" type="matrix" values="0 0 0 0 0 0 0 0 0 0 0 0 0 0 0 0 0 0 127 0" result="hardAlpha"/>
<feOffset dy="1"/>
<feGaussianBlur stdDeviation="2.5"/>
<feComposite in2="hardAlpha" operator="out"/>
<feColorMatrix type="matrix" values="0 0 0 0 1 0 0 0 0 1 0 0 0 0 1 0 0 0 0.25 0"/>
<feBlend mode="normal" in2="BackgroundImageFix" result="effect1_dropShadow_1_5"/>
<feBlend mode="normal" in="SourceGraphic" in2="effect1_dropShadow_1_5" result="shape"/>
</filter>
<linearGradient id="paint0_linear_1_5" x1="15" y1="8.5" x2="64.5" y2="37" gradientUnits="userSpaceOnUse">
<stop stop-color="#C013CF"/>
<stop offset="0.777803" stop-color="#C013CF" stop-opacity="0.0971992"/>
<stop offset="1" stop-color="#C013CF" stop-opacity="0"/>
</linearGradient>
</defs>
</svg>
